<svg width="25" height="32" viewBox="0 0 25 32" fill="none" xmlns="http://www.w3.org/2000/svg">
<path d="M22.4928 28.1564C22.4928 29.5653 21.4302 30.9037 19.8705 30.9037C18.3108 30.9037 16.8447 29.5653 16.8447 28.1564C16.8447 26.7475 18.1091 25.4092 19.6688 25.4092C21.2285 25.4092 22.4928 26.7475 22.4928 28.1564Z" fill="#431D50"/>
<path d="M23.1436 6.12003L1.76367 6.24981L3.93418 29.3345C8.58195 29.3345 16.0373 29.5307 16.0373 29.5307C15.2304 25.2921 18.2277 24.3462 19.7069 24.3462C19.8414 21.5336 20.3392 15.8563 20.9847 15.5423C21.6302 15.2283 22.4111 14.0856 22.7473 13.4969L23.1436 6.12003Z" fill="#009640"/>
<rect x="5.14453" y="1.27344" width="14.5237" height="1.56985" fill="#431D50"/>
<path d="M2.72409 3.43147L10.5911 2.84277L18.0547 2.84277L22.4924 3.43147L23.7028 5.19755H22.089L1.11035 5.19755L2.72409 3.43147Z" fill="#431D50"/>
<path d="M24.3421 6.4H24.2961L23.8026 13.1648C23.7434 13.9968 23.3553 14.7648 22.7171 15.3216L22.1776 15.7952C21.8026 16.1216 21.5658 16.576 21.5263 17.0688L20.8882 24.4864C22.5 24.9664 23.6842 26.432 23.6842 28.16C23.6842 30.2784 21.9145 32 19.7368 32C18.5724 32 17.5263 31.5008 16.8026 30.72H4.50658C3.48684 30.72 2.61842 29.9456 2.53947 28.9536L0.710526 6.4H0.657893C0.296052 6.4 8.34465e-07 6.112 8.34465e-07 5.76C8.34465e-07 3.9936 1.47368 2.56 3.28947 2.56H4.01316C4.31579 1.1008 5.64474 0 7.23684 0L17.7632 0C19.3487 0 20.6776 1.1008 20.9868 2.56H21.7105C23.5263 2.56 25 3.9936 25 5.76C25 6.112 24.7039 6.4 24.3421 6.4ZM19.7368 30.72C21.1908 30.72 22.3684 29.5744 22.3684 28.16C22.3684 26.7456 21.1908 25.6 19.7368 25.6C18.2829 25.6 17.1053 26.7456 17.1053 28.16C17.1053 29.5744 18.2829 30.72 19.7368 30.72ZM3.84868 28.8512C3.875 29.184 4.16447 29.44 4.50658 29.44H16.0197C15.875 29.0368 15.7895 28.608 15.7895 28.16C15.7895 26.0928 17.4737 24.4096 19.5724 24.3264L20.2105 16.96C20.2829 16.1408 20.6645 15.392 21.2961 14.8416L21.8355 14.368C22.2171 14.0352 22.4539 13.5744 22.4868 13.0752L22.9803 6.4H17.7632H16.4474C17.8338 6.4 17.2301 6.4 16.8682 6.4C16.5064 6.4 17.0366 6.4 16.4474 6.4L9.86842 6.4C10.4588 6.4 10.2303 6.4 9.86842 6.4C9.50658 6.4 9.42868 6.4 9.75581 6.4H9.86842H2.02632L3.84868 28.8512ZM21.7105 3.84H20.3947L17.7632 3.84C17.4013 3.84 17.1053 3.552 17.1053 3.2C17.1053 2.848 17.4013 2.56 17.7632 2.56H19.625C19.3553 1.8176 18.6184 1.28 17.7632 1.28L7.23684 1.28C6.38158 1.28 5.64473 1.8176 5.375 2.56L13.8158 2.56C14.1776 2.56 14.4737 2.848 14.4737 3.2C14.4737 3.552 14.1776 3.84 13.8158 3.84L4.60526 3.84H3.28947C2.43421 3.84 1.69737 4.3776 1.42763 5.12H9.21053L17.1053 5.12H23.5724C23.3026 4.3776 22.5658 3.84 21.7105 3.84ZM18.4211 28.16C18.4211 28.864 19.0132 29.44 19.7368 29.44C20.4605 29.44 21.0526 28.864 21.0526 28.16C21.0526 27.456 20.4605 26.88 19.7368 26.88C19.0132 26.88 18.4211 27.456 18.4211 28.16Z" fill="#009640"/>
</svg>
