<?xml version="1.0" encoding="UTF-8" standalone="no"?>
<!-- Created with Inkscape (http://www.inkscape.org/) -->

<svg
   version="1.1"
   id="svg1"
   width="426.19717"
   height="84.164993"
   viewBox="0 0 426.19717 84.164992"
   xmlns="http://www.w3.org/2000/svg"
   xmlns:svg="http://www.w3.org/2000/svg">
  <defs
     id="defs1" />
  <g
     id="g1"
     transform="translate(-0.02141031,196.72388)">
    <path
       style="fill:#ffffff;fill-opacity:1"
       d="m 393.17488,-112.73106 c -3.29632,-0.35179 -8.24884,-2.07923 -11.50375,-4.01251 -3.49369,-2.07511 -7.64533,-6.18696 -9.77758,-9.68385 -8.97755,-14.7232 -3.7294,-33.78404 11.45454,-41.60198 4.47055,-2.3018 8.54091,-3.26969 13.72455,-3.26353 14.32781,0.017 26.37697,10.25538 28.86181,24.52436 0.59622,3.42379 0.21759,9.63775 -0.79446,13.0384 -2.40353,8.0762 -7.3833,14.07939 -14.89915,17.96117 -4.95207,2.55765 -11.17929,3.66616 -17.06596,3.03794 z m 7.34115,-15.1404 c 7.18383,-1.91276 11.94509,-9.15565 10.71897,-16.30583 -0.54921,-3.20275 -1.97753,-5.89055 -4.32286,-8.13473 -5.86261,-5.60976 -14.5634,-5.53979 -20.26617,0.16298 -6.52887,6.52886 -5.39277,17.39805 2.33687,22.35696 3.45404,2.21593 7.74215,2.93003 11.53319,1.92062 z m -378.211153,14.65998 c -10.395134,-1.87945 -18.0069666,-8.4673 -20.8597734,-18.0536 -1.31263264,-4.41085 -1.79218634,-11.17476 -1.12303823,-15.84 1.07554643,-7.49862 3.64952423,-12.84127 8.28967853,-17.20639 4.3878591,-4.12779 9.6024611,-6.21461 16.3363541,-6.53762 13.053062,-0.62612 22.137704,5.59715 25.318554,17.34401 0.571052,2.10889 0.699217,3.49948 0.727325,7.89146 0.01877,2.9323 -0.07629,5.44272 -0.211242,5.5787 -0.134949,0.13598 -7.982949,1.2736 -17.439999,2.52805 l -17.194637,2.28082 0.112924,0.7761 c 0.193666,1.33101 1.612409,3.7902 2.969604,5.1474 4.84847,4.84847 15.315388,4.88326 26.058258,0.0866 0.302647,-0.13513 4.939213,11.07243 4.939213,11.93912 0,0.66531 -5.359544,2.59495 -9.49007,3.41679 -6.180603,1.22974 -13.746369,1.49593 -18.433151,0.64856 z m 2.643221,-34.21428 c 11.939715,-1.57644 10.648519,-1.22661 10.40286,-2.81849 -0.570522,-3.697 -2.215355,-6.33941 -4.757243,-7.64245 -1.804938,-0.92527 -5.295306,-1.13866 -7.611436,-0.46534 -4.242043,1.23319 -7.202485,5.22148 -7.828304,10.54622 -0.20052,1.70611 -0.187487,1.74427 0.554388,1.62344 0.417855,-0.0681 4.575736,-0.62758 9.239735,-1.24338 z m 53.119999,34.25656 c -5.126825,-1.09937 -8.57868,-2.97952 -12.348021,-6.72572 -2.531324,-2.51577 -3.122562,-3.3254 -4.564223,-6.25016 -2.877863,-5.83843 -3.995447,-12.41114 -3.306837,-19.44811 0.498371,-5.09289 1.348101,-8.26168 3.237152,-12.07189 4.467758,-9.01146 13.167805,-13.73732 24.277268,-13.18739 4.239327,0.20985 7.773489,1.02005 10.719354,2.45739 3.553529,1.73384 3.506671,1.04043 0.522885,7.73766 -1.438953,3.22979 -2.639354,5.90112 -2.667558,5.9363 -0.0282,0.0352 -0.694497,-0.35377 -1.48065,-0.86434 -0.786154,-0.51057 -2.287624,-1.15135 -3.336602,-1.42396 -6.783802,-1.763 -11.940573,1.32619 -14.015836,8.39624 -0.786358,2.67897 -0.941249,9.5344 -0.276281,12.2281 1.142075,4.62642 3.72265,8.05034 7.002979,9.29161 2.519985,0.95356 6.23685,0.75797 8.917461,-0.46926 1.023852,-0.46873 2.118338,-1.08464 2.432191,-1.36867 0.313853,-0.28403 0.63323,-0.45383 0.709727,-0.37734 0.378413,0.37842 5.277226,12.21676 5.144363,12.43173 -0.349255,0.56511 -5.020634,2.61324 -7.385939,3.2383 -3.300146,0.87212 -10.53718,1.1223 -13.581433,0.46951 z m 45.126883,-0.35081 c -8.71249,-2.25045 -15.33616,-7.63793 -19.19851,-15.61542 -1.79631,-3.7102 -2.44264,-5.97479 -2.85696,-10.01015 -1.252362,-12.19762 5.60451,-24.27189 16.69329,-29.39522 4.48474,-2.07208 6.83341,-2.55734 12.3953,-2.56101 4.12113,-0.003 5.39296,0.11543 7.52,0.69855 9.4374,2.58727 16.95413,9.4525 20.1482,18.40191 1.44333,4.04404 1.89874,7.16069 1.68621,11.53983 -0.64986,13.39045 -10.20696,24.54779 -23.34092,27.24914 -3.8122,0.78408 -9.32322,0.65413 -13.04661,-0.30763 z m 0.31312,-6.04796 c 0,-0.0786 -0.828,-0.68289 -1.84,-1.34289 -2.46249,-1.60596 -6.3788,-5.61972 -7.75633,-7.94933 -2.45595,-4.15337 -3.24036,-9.25849 -2.09043,-13.60489 1.38053,-5.218 5.08081,-9.80068 9.78665,-12.12048 2.46543,-1.21536 6.09478,-2.26003 7.90011,-2.27396 0.6862,-0.005 0.72,-0.12572 0.72,-2.56556 0,-2.28817 0.0636,-2.56 0.59894,-2.56 0.77232,0 5.05906,2.79783 6.93226,4.52449 1.7027,1.56949 4.6288,5.81443 4.6288,6.71507 0,1.53233 -2.96686,6.09125 -5.55084,8.5295 -1.61398,1.52296 -5.18847,3.59004 -6.20916,3.59069 -0.29022,1.8e-4 -0.4,-0.78562 -0.4,-2.8631 v -2.86336 l -0.95224,0.33196 c -0.52374,0.18257 -2.06542,1.07568 -3.42597,1.98467 -2.80061,1.87112 -5.34111,4.75366 -6.85216,7.7747 -0.96678,1.93288 -0.97388,1.982 -0.43946,3.04 1.70225,3.37 4.62138,6.32813 8.62198,8.73716 2.91893,1.75769 3.04785,1.68402 3.04785,-1.74178 v -2.88 l 0.88,-0.006 c 1.86231,-0.0118 5.46048,-0.99534 7.76,-2.12125 3.494,-1.71076 6.83767,-5.12756 8.56584,-8.75319 1.51034,-3.16862 1.99598,-5.22302 1.98943,-8.41575 -0.0181,-8.81048 -6.54208,-16.80609 -15.19527,-18.62285 -7.40861,-1.55545 -15.29251,1.08972 -20.86694,7.0012 -4.01479,4.25753 -6.08296,8.97499 -6.39961,14.5974 -0.40089,7.11815 2.7573,14.98256 7.84148,19.52659 2.45602,2.1951 8.70507,5.30381 8.70507,4.33051 z m 145.78671,6.50872 c -12.25913,-1.78794 -19.85918,-8.80999 -22.30191,-20.60583 -0.74199,-3.58306 -0.81697,-11.26948 -0.14706,-15.07597 1.07285,-6.09606 3.24405,-10.52055 7.06225,-14.39147 3.66441,-3.71502 8.1923,-6.01424 13.52003,-6.86534 4.02014,-0.64223 10.92846,-0.38114 13.91997,0.52608 0.527,0.15982 0.56,-0.6046 0.56,-12.97174 v -13.14156 h 7.36 7.36 v 39.48597 39.48597 l -2,0.80033 c -2.55123,1.02091 -8.46644,2.33515 -12.46738,2.77 -3.60073,0.39135 -10.12703,0.38301 -12.8659,-0.0164 z m 10.89702,-11.2906 1.55626,-0.39697 0.0828,-16.99339 0.0828,-16.99339 -1.2028,-0.42574 c -0.76548,-0.27095 -2.71792,-0.42574 -5.37006,-0.42574 -4.06294,0 -4.22064,0.0263 -6.29914,1.04978 -3.63469,1.78981 -6.01367,5.00048 -7.36582,9.9409 -0.97777,3.57257 -0.96971,10.40931 0.0164,13.9083 1.37152,4.86653 3.61424,7.89732 7.09991,9.59476 3.05168,1.48609 7.37743,1.76746 11.39965,0.74149 z m -101.12631,8.20477 c -6.39861,-16.88521 -20.03742,-53.3432 -20.03742,-53.56214 0,-0.16628 3.48711,-0.25246 8.22497,-0.20326 l 8.22497,0.0854 5.68357,18.53665 c 3.12596,10.19516 6.00076,20.02316 6.38844,21.84 0.38768,1.81684 0.79047,3.30335 0.89508,3.30335 0.10462,0 0.5124,-1.476 0.90618,-3.28 0.39378,-1.804 3.27215,-11.6656 6.39638,-21.91467 l 5.68041,-18.63466 8.27423,-0.005 c 6.48723,-0.004 8.24208,0.0811 8.12533,0.39466 -0.0819,0.22 -4.79296,12.82 -10.46904,28 l -10.32015,27.6 h -8.57721 -8.57721 z m 45.24257,-25.84 v -28 h 7.2 7.2 v 28 28 h -7.2 -7.2 z m 83.84,1.32147 v -26.67854 l 3.44,-0.98831 c 7.28657,-2.09343 12.24637,-2.76249 20.47097,-2.76149 4.59495,5.7e-4 6.58196,0.1118 6.85385,0.38369 0.29719,0.29718 0.0999,1.62071 -0.8816,5.91303 l -1.2645,5.53015 -1.26936,-0.16 c -2.72418,-0.34338 -10.21784,-0.11966 -11.50936,0.34361 l -1.28,0.45913 -0.0822,22.31863 -0.0822,22.31863 h -7.19782 -7.19783 z m 37.76,-1.32147 v -28 h 7.36 7.36 v 28 28 h -7.36 -7.36 z m -116.10104,-39.21516 c -3.72505,-0.7516 -6.14612,-3.82492 -6.13193,-7.78392 0.0114,-3.19209 1.57525,-5.7349 4.37043,-7.10651 1.76218,-0.86471 5.27969,-0.82086 6.98254,0.087 2.83074,1.50926 4.32212,3.94428 4.31688,7.04826 -0.009,5.15736 -4.46302,8.77908 -9.53792,7.75512 z m 120.97201,-0.11635 c -3.21231,-1.04721 -5.18905,-3.66259 -5.42102,-7.17244 -0.12395,-1.87549 -0.0307,-2.35047 0.76444,-3.89385 2.18206,-4.2354 7.2102,-5.59696 11.36482,-3.07747 4.21057,2.55342 4.87721,8.61158 1.33716,12.15163 -2.04578,2.04578 -5.36201,2.86691 -8.0454,1.99213 z"
       id="path1" />
  </g>
</svg>
