<svg width="14" height="14" viewBox="0 0 14 14" fill="none" xmlns="http://www.w3.org/2000/svg">
<path d="M5.50375 8.33105L0.49025 6.30205C0.312083 6.23155 0.185833 6.12605 0.1115 5.98555C0.0371668 5.84505 0 5.70113 0 5.5538C0 5.40646 0.0413335 5.26138 0.124 5.11855C0.206667 4.97555 0.337083 4.8688 0.51525 4.7983L12.5458 0.246298C12.7024 0.179631 12.8564 0.166966 13.0078 0.208299C13.1589 0.249466 13.2896 0.325131 13.3997 0.435298C13.5097 0.545298 13.5853 0.675882 13.6265 0.827049C13.6678 0.978382 13.6549 1.13238 13.5878 1.28905L8.9955 13.3068C8.9285 13.4763 8.8245 13.6035 8.6835 13.6883C8.5425 13.7731 8.39817 13.8155 8.2505 13.8155C8.10267 13.8155 7.95683 13.7748 7.813 13.6933C7.669 13.6118 7.56275 13.4827 7.49425 13.306L5.50375 8.33105ZM8.2345 12.4503L12.5155 1.31955L1.34625 5.5618L6.24625 7.5503L8.2345 12.4503Z" fill="#1C1B1F"/>
</svg>
