<?xml version="1.0" encoding="UTF-8" standalone="no"?>
<!-- Created with Inkscape (http://www.inkscape.org/) -->

<svg
   width="50.800007mm"
   height="50.799995mm"
   viewBox="0 0 50.800007 50.799995"
   version="1.1"
   id="svg1"
   xml:space="preserve"
   inkscape:export-filename="QRlocal.svg"
   inkscape:export-xdpi="300"
   inkscape:export-ydpi="300"
   xmlns:inkscape="http://www.inkscape.org/namespaces/inkscape"
   xmlns:sodipodi="http://sodipodi.sourceforge.net/DTD/sodipodi-0.dtd"
   xmlns="http://www.w3.org/2000/svg"
   xmlns:svg="http://www.w3.org/2000/svg"><sodipodi:namedview
     id="namedview1"
     pagecolor="#ffffff"
     bordercolor="#000000"
     borderopacity="0.25"
     inkscape:showpageshadow="2"
     inkscape:pageopacity="0.0"
     inkscape:pagecheckerboard="0"
     inkscape:deskcolor="#d1d1d1"
     inkscape:document-units="mm" /><defs
     id="defs1" /><g
     inkscape:label="Capa 1"
     inkscape:groupmode="layer"
     id="layer1"
     transform="translate(-79.599993,-33.371772)"><path
       style="fill:#000000"
       d="m 93.534721,79.762051 v -4.40972 h 0.881944 0.881945 v -0.88194 -0.88195 h -0.881945 -0.881944 v -1.76389 -1.76389 h 1.763889 1.763888 v -2.55764 -2.55763 H 96.180554 95.29861 v 0.88194 0.88194 h -0.881945 -0.881944 v 0.79375 0.79375 h -0.79375 -0.79375 v 0.88195 0.88194 h -0.881945 -0.881944 v -0.88194 -0.88195 h 0.881944 0.881945 v -0.79375 -0.79375 h -0.881945 -0.881944 v -0.88194 -0.88194 h 0.881944 0.881945 v 0.88194 0.88194 h 0.79375 0.79375 v -0.88194 -0.88194 h 0.881944 0.881945 v -1.76389 -1.76389 h -1.675695 -1.675694 v 0.88194 0.88195 h -1.763889 -1.763889 v 0.88194 0.88195 h -0.881945 -0.881944 v -0.88195 -0.88194 h 0.881944 0.881945 v -0.88195 -0.88194 h -0.881945 -0.881944 v -0.88195 -0.88194 H 85.77361 84.891665 v -0.88195 -0.88194 h -1.763889 -1.763889 v 0.88194 0.88195 h 0.881945 0.881944 v 2.64583 2.64584 h 0.881945 0.881944 v 1.67569 1.67569 h 1.763889 1.763889 v 0.88195 0.88194 h -1.763889 -1.763889 v -0.88194 -0.88195 h -0.881944 -0.881945 v -1.67569 -1.67569 h -0.881944 -0.881945 v 2.55763 2.55764 h -0.881944 -0.881945 v -3.43958 -3.43958 h 0.881945 0.881944 v -1.76389 -1.76389 h -0.881944 -0.881945 v -0.88195 -0.88194 h 0.881945 0.881944 v -1.76389 -1.76389 h 0.881945 0.881944 v -0.88194 -0.88195 h -1.763889 -1.763889 v -0.88194 -0.88195 h 0.881945 0.881944 v -0.88194 -0.88194 h -0.881944 -0.881945 v -0.88195 -0.88194 h 4.409723 4.409722 v 0.88194 0.88195 h 0.881944 0.881945 v -0.88195 -0.88194 h 4.321528 4.321527 v 0.88194 0.88195 h -0.881944 -0.881945 v 1.76388 1.76389 h 0.881945 0.881944 v -0.88194 -0.88195 h 3.527773 3.52778 v 0.88195 0.88194 h -2.64583 -2.64584 v 1.76389 1.76389 h 0.88195 0.88194 v 0.88195 0.88194 h 0.88195 0.88194 v -1.76389 -1.76389 h 1.76389 1.76389 v 1.76389 1.76389 h 1.76389 1.76389 v 0.88194 0.88195 h -0.88195 -0.88194 v 0.88194 0.88195 h 1.76389 1.76389 v -0.88195 -0.88194 h 1.67569 1.6757 v 2.64583 2.64584 h -0.88195 -0.88194 v 1.67569 1.67569 h 0.88194 0.88195 v -0.79375 -0.79375 h 3.52777 3.52778 v -0.88194 -0.88194 h -1.76389 -1.76389 v -1.76389 -1.76389 h -0.88194 -0.88195 v -0.88195 -0.88194 h 2.64584 2.64583 v -0.88195 -0.88194 h -0.88194 -0.88195 v -0.88194 -0.88195 h -0.88194 -0.88195 v -0.88194 -0.88195 h -0.88194 -0.88195 v 1.76389 1.76389 h -2.55763 -2.55764 v -0.88194 -0.88195 h 0.79375 0.79375 v -0.88194 -0.88195 h -1.6757 -1.67569 v -0.88194 -0.88195 h -0.88195 -0.88194 v -0.88194 -0.88195 h -0.88195 -0.88194 v -0.88194 -0.88194 h -1.76389 -1.76389 v -2.55764 -2.55764 h -0.88194 -0.88195 v 2.55764 2.55764 h -0.88194 -0.88195 v -2.55764 -2.55764 h 0.88195 0.88194 v -0.88195 -0.88194 h -0.88194 -0.88195 v -0.88195 -0.88194 h -0.881938 -0.881945 v 2.64583 2.64584 h -0.881944 -0.881945 v -2.64584 -2.64583 H 95.29861 93.534721 v -0.88194 -0.88195 h 0.881944 0.881945 v -0.88194 -0.88195 h -0.881945 -0.881944 v -0.88194 -0.88195 h 0.881944 0.881945 v -0.88194 -0.88195 h 0.881944 0.881944 v 1.76389 1.76389 h 0.881945 0.881944 v -0.88194 -0.88195 h 2.645833 2.64583 v -0.88194 -0.88195 H 105 h 0.88194 v 1.76389 1.76389 H 105 104.11805 v 0.88195 0.88194 h 1.76389 1.76389 v -0.88194 -0.88195 h 0.88194 0.88195 v -0.88194 -0.88195 h -0.88195 -0.88194 v -0.88194 -0.88195 h 0.88194 0.88195 v 0.88195 0.88194 h 0.88194 0.88195 v -0.88194 -0.88195 h 0.88194 0.88195 v 1.76389 1.76389 h 0.79375 0.79375 v -1.76389 -1.76389 h 0.88194 0.88195 v 2.64584 2.64583 h -2.55764 -2.55764 v 0.88195 0.88194 h 0.88194 0.88195 v 0.88194 0.88195 h 0.79375 0.79375 v -0.88195 -0.88194 h 0.88194 0.88195 v 0.88194 0.88195 h -0.88195 -0.88194 v 0.88194 0.88195 h 0.88194 0.88195 v 1.67569 1.6757 h 0.88194 0.88194 v 0.88194 0.88195 h 0.88195 0.88194 v -0.88195 -0.88194 h 0.88195 0.88194 v 1.76389 1.76388 h -1.76389 -1.76389 v -0.88194 -0.88194 h -1.76388 -1.76389 v -0.88195 -0.88194 h -0.79375 -0.79375 v -0.79375 -0.79375 h -0.88195 -0.88194 v -0.88195 -0.88194 h -0.88195 -0.88194 v 1.67569 1.6757 h 0.88194 0.88195 v 0.88194 0.88195 h 0.88194 0.88195 v 0.88194 0.88194 h 0.79375 0.79375 v 0.88195 0.88194 h 0.88194 0.88195 v 0.88195 0.88194 h 0.88194 0.88194 v -0.88194 -0.88195 h 2.64584 2.64583 v -2.64583 -2.64583 h 0.88195 0.88194 v 1.76389 1.76388 h 0.88194 0.88195 v -1.76388 -1.76389 h 0.88194 0.88195 v 1.76389 1.76388 h -0.88195 -0.88194 v 0.88195 0.88194 h -0.88195 -0.88194 v 0.88195 0.88194 h -1.76389 -1.76389 v 0.88195 0.88194 h 1.76389 1.76389 v 0.88195 0.88194 h 0.88194 0.88195 v -0.88194 -0.88195 h 0.88194 0.88195 v 0.88195 0.88194 h 0.88194 0.88195 v 1.76389 1.76389 h -1.76389 -1.76389 v -0.88195 -0.88194 h -1.76389 -1.76389 v 1.76389 1.76389 h 0.88195 0.88194 v 0.88194 0.88195 h 1.76389 1.76389 v -0.88195 -0.88194 h 0.88194 0.88195 v 2.55764 2.55763 h -0.88195 -0.88194 v 1.76389 1.76389 h -0.88195 -0.88194 v 0.88195 0.88194 h 1.76389 1.76389 v 1.76389 1.76389 h -2.64584 -2.64583 v -1.76389 -1.76389 h -0.88194 -0.88195 v 1.76389 1.76389 h -0.88194 -0.88195 v 1.76389 1.76389 h -2.64583 -2.64583 v -0.88195 -0.88194 h -0.88195 -0.88194 v 0.88194 0.88195 h -0.79375 -0.79375 v 0.88194 0.88195 h 0.79375 0.79375 v 0.88194 0.88194 h -0.79375 -0.79375 v -0.88194 -0.88194 h -1.76389 -1.76389 v -1.76389 -1.76389 h -0.88195 -0.88194 v -0.88195 -0.88194 h -1.76389 -1.76389 v -0.88195 -0.88194 h 1.76389 1.76389 v -0.88194 -0.88195 H 105 102.35416 v 2.64583 2.64584 h 1.76389 1.76389 v 0.88194 0.88195 H 105 104.11805 v 0.88194 0.88195 h 1.76389 1.76389 v 0.88194 0.88194 H 105 102.35416 v -2.64583 -2.64583 h -2.645828 -2.645834 v -1.76389 -1.76389 H 96.180554 95.29861 v 2.64583 2.64584 h 0.881944 0.881944 v 1.76389 1.76388 H 95.29861 93.534721 Z m 19.402779,0 v -0.88194 h 0.79375 0.79375 v -0.88195 -0.88194 h -0.79375 -0.79375 v -0.88195 -0.88194 h -0.88195 -0.88194 v -0.88194 -0.88195 h 0.88194 0.88195 v -1.76389 -1.76389 h 0.79375 0.79375 v -0.88194 -0.88195 h -0.79375 -0.79375 v 0.88195 0.88194 h -2.64584 -2.64583 v 1.76389 1.76389 h 0.88194 0.88195 v 0.88195 0.88194 h -0.88195 -0.88194 v 0.88194 0.88195 h 0.88194 0.88195 v 0.88194 0.88195 h 0.88194 0.88195 v 0.88194 0.88195 h 0.88194 0.88195 z m -3.52778,-7.05555 v -0.88195 h 0.88194 0.88195 v 0.88195 0.88194 h -0.88195 -0.88194 z m 8.64305,5.29166 v -0.88194 h -0.88194 -0.88194 v 0.88194 0.88195 h 0.88194 0.88194 z m -17.4625,-4.40972 v -3.52778 h -0.881938 -0.881945 v 0.88195 0.88194 h -0.881944 -0.881945 v 0.88195 0.88194 h 0.881945 0.881944 v 1.76389 1.76389 h 0.881945 0.881938 z m 20.99028,-0.88194 v -2.64584 h -2.64583 -2.64583 v 2.64584 2.64583 h 2.64583 2.64583 z m -3.52778,0 v -0.88195 h 0.88195 0.88194 v 0.88195 0.88194 h -0.88194 -0.88195 z m -13.93472,-2.64584 v -1.76389 h 1.76389 1.76389 v -0.79375 -0.79375 h -3.52778 -3.52778 v 0.79375 0.79375 h 0.88195 0.88194 v 1.76389 1.76389 h 0.88195 0.88194 z m 22.75417,0.88195 v -0.88195 h -1.76389 -1.76389 v 0.88195 0.88194 h 1.76389 1.76389 z m -15.69861,-3.43959 v -0.79375 h 0.88194 0.88195 v -0.88194 -0.88194 h 0.79375 0.79375 v -1.76389 -1.76389 h -0.79375 -0.79375 v 1.76389 1.76389 h -0.88195 -0.88194 v -0.88195 -0.88194 h -0.88195 -0.88194 v -0.88195 -0.88194 h -0.88195 -0.88194 v -0.88195 -0.88194 h -1.76389 -1.76389 v 0.88194 0.88195 h 1.76389 1.76389 v 1.76389 1.76389 h 1.76389 1.76389 v 0.88194 0.88194 h -0.88195 -0.88194 v 0.79375 0.79375 h 0.88194 0.88195 z m 15.69861,0 v -0.79375 h -1.76389 -1.76389 v 0.79375 0.79375 h 1.76389 1.76389 z m -20.99028,-3.43958 v -0.88194 h -2.64583 -2.64584 v -1.76389 -1.76389 h 0.88195 0.88194 v -0.88195 -0.88194 h -0.88194 -0.88195 v -0.88194 -0.88195 h -0.881938 -0.881945 v -0.88194 -0.88195 h -0.881944 -0.881945 v 0.88195 0.88194 H 96.180554 95.29861 v -0.88194 -0.88195 h -0.881945 -0.881944 v -0.88194 -0.88195 h 0.881944 0.881945 v -1.76389 -1.76388 h -2.557639 -2.557639 v 0.88194 0.88194 h -0.881945 -0.881944 v 2.64584 2.64583 h 0.881944 0.881945 v 0.88195 0.88194 h -0.881945 -0.881944 v 0.88194 0.88195 h 0.881944 0.881945 v 0.88194 0.88195 h 0.881944 0.881945 v -0.88195 -0.88194 h -0.881945 -0.881944 v -0.88195 -0.88194 h 1.675694 1.675695 v 0.88194 0.88195 h 0.881944 0.881945 v 0.88194 0.88195 h 0.881944 0.881944 v 1.76389 1.76389 h 4.409722 4.40972 z m -10.58333,-5.29167 v -0.88194 h -0.881945 -0.881944 v -0.88194 -0.88195 h 0.881944 0.881945 v 0.88195 0.88194 h 0.881944 0.881944 v -0.88194 -0.88195 h 0.881945 0.881944 v 0.88195 0.88194 h -0.881944 -0.881945 v 0.88194 0.88195 H 96.180554 95.29861 Z m -5.115278,-3.52777 v -0.88195 h 0.881944 0.881945 v 0.88195 0.88194 h -0.881945 -0.881944 z m 0,-3.52778 v -0.88195 h 1.675694 1.675695 v 0.88195 0.88194 h -1.675695 -1.675694 z m -3.527778,3.52778 v -2.64584 H 85.77361 84.891665 v -0.88194 -0.88195 h -0.881944 -0.881945 v 0.88195 0.88194 h 0.881945 0.881944 v 0.88195 0.88194 h -0.881944 -0.881945 v 0.88195 0.88194 h 0.881945 0.881944 v 0.88195 0.88194 h 0.881945 0.881944 z m 26.281946,-3.52778 v -0.88195 h -0.88195 -0.88194 v -0.88194 -0.88194 h -0.88195 -0.88194 v 0.88194 0.88194 h 0.88194 0.88195 v 0.88195 0.88194 h 0.88194 0.88195 z m -5.29167,-6.08542 v -1.67569 h 0.88194 0.88195 v -0.88195 -0.88194 h 0.88194 0.88195 v 0.88194 0.88195 h 0.88194 0.88195 v 0.88194 0.88195 h 0.79375 0.79375 v -0.88195 -0.88194 h -0.79375 -0.79375 v -0.88195 -0.88194 h -0.88195 -0.88194 v -0.88195 -0.88194 h -4.40972 -4.40973 v -1.76389 -1.76389 h -0.88194 -0.88195 v 1.76389 1.76389 h 0.88195 0.88194 v 0.88194 0.88195 H 105 h 2.64583 v 0.88194 0.88195 h -0.88194 -0.88195 v 1.67569 1.6757 h 0.88195 0.88194 z m -8.819443,-6.08541 v -0.88195 h -0.881944 -0.881945 v 0.88195 0.88194 h 0.881945 0.881944 z m 19.226383,43.74444 v -0.88194 h 0.88195 0.88194 v 0.88194 0.88194 h -0.88194 -0.88195 z m 3.52778,0 v -0.88194 h 0.88195 0.88194 v -0.88195 -0.88194 h 0.88195 0.88194 v -0.88195 -0.88194 h 1.76389 1.76389 v 0.88194 0.88195 h 0.88194 0.88195 v 0.88194 0.88195 h -0.88195 -0.88194 v -0.88195 -0.88194 h -0.88195 -0.88194 v 1.76389 1.76388 h -2.64583 -2.64584 z m -41.980552,-5.29167 v -5.99722 h 6.085417 6.085417 v 5.99722 5.99723 h -6.085417 -6.085417 z m 10.583334,0 v -4.40972 H 85.77361 81.363887 v 4.40972 4.40973 h 4.409723 4.409722 z m -7.055556,0 v -2.64583 h 2.645834 2.645833 v 2.64583 2.64584 H 85.77361 83.127776 Z m 15.698611,3.52778 v -0.88194 h 0.881945 0.881938 v 0.88194 0.88195 h -0.881938 -0.881945 z m 29.809723,-28.04583 v -0.88195 h 0.88194 0.88195 v 0.88195 0.88194 h -0.88195 -0.88194 z m -35.101389,-9.525 v -1.76389 h 0.881944 0.881945 v 1.76389 1.76389 h -0.881945 -0.881944 z m -13.934723,-4.49792 v -6.08542 h 6.085417 6.085417 v 6.08542 6.08542 h -6.085417 -6.085417 z m 10.542318,0.0441 0.04718,-4.36563 h -4.412804 -4.412804 v 4.41281 4.4128 l 4.365625,-0.0472 4.365625,-0.0472 z m -7.01454,0.0441 v -2.64584 h 2.645834 2.645833 v 2.64584 2.64583 H 85.77361 83.127776 Z m 35.101384,-0.0882 v -6.08542 h 5.99723 5.99722 v 6.08542 6.08542 h -5.99722 -5.99723 z m 10.40695,0.0882 v -4.40973 h -4.40972 -4.40973 v 4.40973 4.40972 h 4.40973 4.40972 z m -7.05556,0 v -2.64584 h 2.64584 2.64583 v 2.64584 2.64583 h -2.64583 -2.64584 z"
       id="path1" /></g></svg>
