<?xml version="1.0" encoding="UTF-8" standalone="no"?>
<!-- Created with Inkscape (http://www.inkscape.org/) -->

<svg
   width="50.799992mm"
   height="50.799999mm"
   viewBox="0 0 50.799992 50.799999"
   version="1.1"
   id="svg1"
   xml:space="preserve"
   xmlns:inkscape="http://www.inkscape.org/namespaces/inkscape"
   xmlns:sodipodi="http://sodipodi.sourceforge.net/DTD/sodipodi-0.dtd"
   xmlns="http://www.w3.org/2000/svg"
   xmlns:svg="http://www.w3.org/2000/svg"><sodipodi:namedview
     id="namedview1"
     pagecolor="#ffffff"
     bordercolor="#000000"
     borderopacity="0.25"
     inkscape:showpageshadow="2"
     inkscape:pageopacity="0.0"
     inkscape:pagecheckerboard="0"
     inkscape:deskcolor="#d1d1d1"
     inkscape:document-units="mm" /><defs
     id="defs1" /><g
     inkscape:label="Capa 1"
     inkscape:groupmode="layer"
     id="layer1"
     transform="translate(-79.053392,-187.45858)"><path
       style="fill:#000000"
       d="m 92.988114,233.84887 v -4.40972 h 0.881945 0.881944 v -0.88195 -0.88194 h -0.881944 -0.881945 v -3.43959 -3.43958 H 91.31242 89.636725 v 0.79375 0.79375 h 0.881945 0.881944 v 0.88195 0.88194 h -1.763889 -1.763889 v -0.88194 -0.88195 h -0.881944 -0.881945 v 0.88195 0.88194 h -1.763889 -1.763889 v -2.55764 -2.55764 h 1.763889 1.763889 v -0.88194 -0.88195 h 0.881945 0.881944 v -0.88194 -0.88195 h 1.763889 1.763889 v -0.88194 -0.88194 H 90.51867 89.636725 v -0.88195 -0.88194 h 0.881945 0.881944 v 0.88194 0.88195 h 0.79375 0.79375 v -2.64584 -2.64583 h -0.79375 -0.79375 v 0.88194 0.88195 H 90.51867 89.636725 v -0.88195 -0.88194 h 0.881945 0.881944 v -0.88195 -0.88194 H 90.51867 89.636725 v -0.88194 -0.88195 h 0.881945 0.881944 v -0.88194 -0.88195 H 90.51867 89.636725 v -0.88194 -0.88195 h 2.557639 2.557639 v -0.79375 -0.79375 h -0.881944 -0.881945 v -1.76389 -1.76388 h 0.881945 0.881944 v -0.88195 -0.88194 h -0.881944 -0.881945 v -0.88195 -0.88194 h 2.645834 2.645833 v 0.88194 0.88195 h -0.881944 -0.881945 v 1.76389 1.76388 h 0.881945 0.881944 v -0.88194 -0.88194 h 2.645839 2.64583 v -0.88195 -0.88194 h -1.76389 -1.76389 v -1.76389 -1.76389 h 0.88195 0.88194 v -0.88195 -0.88194 h -0.88194 -0.88195 v -0.88195 -0.88194 h 0.88195 0.88194 v 0.88194 0.88195 h 0.88194 0.88195 v -0.88195 -0.88194 h 0.88194 0.88195 v 1.76389 1.76389 h -1.76389 -1.76389 v 0.88194 0.88195 h 0.88194 0.88195 v 0.88194 0.88195 h 0.88194 0.88195 v -0.88195 -0.88194 h 0.88194 0.88195 v -0.88195 -0.88194 h 0.88194 0.88195 v -0.88195 -0.88194 h -0.88195 -0.88194 v -0.88195 -0.88194 h 0.88194 0.88195 v 0.88194 0.88195 h 0.88194 0.88194 v -0.88195 -0.88194 h 0.88195 0.88194 v 1.76389 1.76389 h 0.79375 0.79375 v -1.76389 -1.76389 h 0.88195 0.88194 v 2.64583 2.64584 h -2.55764 -2.55764 v 0.88194 0.88195 h 0.88195 0.88194 v 0.88194 0.88195 h 0.79375 0.79375 v -0.88195 -0.88194 h 0.88195 0.88194 v 0.88194 0.88195 h -0.88194 -0.88195 v 0.88194 0.88194 h 0.88195 0.88194 v 1.6757 1.67569 h 0.88195 0.88194 v 0.88195 0.88194 h 0.88195 0.88194 v -0.88194 -0.88195 h 0.88195 0.88194 v 1.76389 1.76389 h -1.76389 -1.76389 v -0.88194 -0.88195 h -1.76389 -1.76389 v -0.88194 -0.88195 h -0.79375 -0.79375 v -0.79375 -0.79375 h -0.88194 -0.88195 v -0.88194 -0.88195 h -0.88194 -0.88194 v 1.6757 1.67569 h 0.88194 0.88194 v 0.88195 0.88194 h 0.88195 0.88194 v 0.88195 0.88194 h 0.79375 0.79375 v 0.88195 0.88194 h 0.88195 0.88194 v 0.88194 0.88195 h 0.88195 0.88194 v -0.88195 -0.88194 h 2.64584 2.64583 v -2.64583 -2.64584 h 0.88194 0.88195 v 1.76389 1.76389 h 0.88194 0.88195 v -1.76389 -1.76389 h 0.88194 0.88195 v 1.76389 1.76389 h -0.88195 -0.88194 v 0.88195 0.88194 h -0.88195 -0.88194 v 0.88194 0.88195 h -1.76389 -1.76389 v 0.88194 0.88195 h 1.76389 1.76389 v 0.88194 0.88195 h 0.88194 0.88195 v -0.88195 -0.88194 h 0.88194 0.88195 v 0.88194 0.88195 h 0.88194 0.88194 v 1.76389 1.76388 h -1.76388 -1.76389 v -0.88194 -0.88194 h -1.76389 -1.76389 v 1.76388 1.76389 h 0.88194 0.88195 v 0.88195 0.88194 h 0.88194 0.88195 v -0.88194 -0.88195 h 1.76389 1.76388 v 0.88195 0.88194 h -1.76388 -1.76389 v 0.88195 0.88194 h 1.76389 1.76388 v 0.79375 0.79375 h -0.88194 -0.88194 v 1.76389 1.76389 h -0.88195 -0.88194 v 0.88194 0.88195 h 1.76389 1.76388 v 1.76389 1.76389 h -2.64583 -2.64583 v -1.76389 -1.76389 h -0.88195 -0.88194 v 1.76389 1.76389 h -0.88195 -0.88194 v 1.76388 1.76389 h -2.64583 -2.64584 v -0.88194 -0.88195 h -0.88194 -0.88195 v 0.88195 0.88194 h -0.79375 -0.79375 v 0.88195 0.88194 h 0.79375 0.79375 v 0.88195 0.88194 h -0.79375 -0.79375 v -0.88194 -0.88195 h -1.76389 -1.76388 v -1.76389 -1.76389 h -0.88195 -0.88194 v -0.88194 -0.88194 h -0.88195 -0.88194 v 1.76388 1.76389 h -0.88195 -0.88194 v 0.88195 0.88194 h 1.76389 1.76389 v 0.88195 0.88194 h -1.76389 -1.76389 v -0.88194 -0.88195 h -0.88195 -0.88194 v 0.88195 0.88194 h -0.88194 -0.88195 v -1.76389 -1.76389 h 0.88195 0.88194 v -0.88194 -0.88195 h -0.88194 -0.88195 v -0.88194 -0.88194 h -0.881944 -0.881945 v -1.76389 -1.76389 h -0.881944 -0.881945 v 0.88194 0.88195 h -0.881944 -0.881945 v 3.52777 3.52778 h 0.881945 0.881944 v -0.88194 -0.88195 h 0.881945 0.881944 v 1.76389 1.76389 h -2.645833 -2.645834 z m 19.402776,0 v -0.88195 h 0.79375 0.79375 v -0.88194 -0.88194 h -0.79375 -0.79375 v -0.88195 -0.88194 h -0.88194 -0.88195 v -0.88195 -0.88194 h 0.88195 0.88194 v -1.76389 -1.76389 h 0.79375 0.79375 v -0.88194 -0.88195 h 0.88195 0.88194 v -0.79375 -0.79375 h 3.52778 3.52778 v 0.79375 0.79375 h 1.76389 1.76389 v -0.79375 -0.79375 h -1.76389 -1.76389 v -0.88194 -0.88195 h -1.76389 -1.76389 v -1.76389 -1.76389 h -0.88194 -0.88195 v -0.88194 -0.88194 h 2.64584 2.64583 v -0.88195 -0.88194 h -0.88195 -0.88194 v -0.88195 -0.88194 h -0.88194 -0.88195 v -0.88195 -0.88194 h -0.88194 -0.88195 v 1.76389 1.76389 h -2.55764 -2.55764 v -0.88195 -0.88194 h 0.79375 0.79375 v -0.88195 -0.88194 h -1.67569 -1.6757 v -0.88195 -0.88194 h 0.88195 0.88194 v -0.88194 -0.88195 h -0.88194 -0.88195 v -0.88194 -0.88195 h -0.88194 -0.88194 v 0.88195 0.88194 h -0.88195 -0.88194 v -0.88194 -0.88195 h -0.88195 -0.88194 v -0.88194 -0.88195 h 0.88194 0.88195 v -1.67569 -1.6757 h 0.88194 0.88195 v -0.88194 -0.88194 h 0.88194 0.88194 v 0.88194 0.88194 h 0.88195 0.88194 v 0.88195 0.88194 h 0.79375 0.79375 v -0.88194 -0.88195 h -0.79375 -0.79375 v -0.88194 -0.88194 h -0.88194 -0.88195 v -0.88195 -0.88194 h -0.88194 -0.88194 v -0.88195 -0.88194 h -0.88195 -0.88194 v 0.88194 0.88195 h 0.88194 0.88195 v 0.88194 0.88195 h -1.76389 -1.76389 v 1.76388 1.76389 h -0.88195 -0.88194 v -0.88194 -0.88195 h -0.88195 -0.88194 v 0.88195 0.88194 h -0.88194 -0.88195 v -0.88194 -0.88195 h -0.881944 -0.881945 v 0.88195 0.88194 h 0.881945 0.881944 v 1.6757 1.67569 h -0.881944 -0.881945 v -0.88194 -0.88195 h -0.881944 -0.881945 v 0.88195 0.88194 h -0.881944 -0.881945 v 2.64584 2.64583 h 1.763889 1.763889 v 0.88194 0.88195 h -0.881944 -0.881945 v 2.64583 2.64583 h -0.881944 -0.881945 v -0.88194 -0.88194 h -0.881944 -0.881945 v 0.88194 0.88194 h -0.79375 -0.79375 v 0.88195 0.88194 h -1.763889 -1.763889 v 0.88195 0.88194 h -0.881944 -0.881945 v 0.88195 0.88194 h -0.881944 -0.881945 v 0.79375 0.79375 h 0.881945 0.881944 v -0.79375 -0.79375 h 0.881945 0.881944 v -0.88194 -0.88195 h 2.557639 2.557639 v 0.88195 0.88194 h 0.881945 0.881944 v -0.88194 -0.88195 h 0.881945 0.881944 v -0.88194 -0.88195 h 0.881945 0.881944 v 1.76389 1.76389 h -0.881944 -0.881945 v 1.6757 1.67569 h -0.881944 -0.881945 v 0.88194 0.88195 h 0.881945 0.881944 v -0.88195 -0.88194 h 0.881945 0.881944 v 0.88194 0.88195 h 1.763889 1.76389 v 0.88194 0.88195 h -0.88194 -0.88195 v 1.76389 1.76389 h 2.64583 2.64584 v -0.88195 -0.88194 h 0.88194 0.88195 v 0.88194 0.88195 h 0.88194 0.88195 v 0.88194 0.88194 h 0.88194 0.88194 v 0.88195 0.88194 h 0.88195 0.88194 z m -8.81944,-5.29167 v -0.88194 h 0.88194 0.88195 v -1.76389 -1.76389 h -0.88195 -0.88194 v -0.88194 -0.88195 h -0.88195 -0.88194 v 0.88195 0.88194 h -0.88194 -0.88195 v -1.67569 -1.6757 h 0.88195 0.88194 v -0.88194 -0.88195 h -0.88194 -0.88195 v -0.88194 -0.88195 h -0.881944 -0.881945 v -2.64583 -2.64583 h 1.763889 1.76389 v 0.88194 0.88195 h -0.88194 -0.88195 v 1.76388 1.76389 h 1.76389 1.76389 v 0.88195 0.88194 h 0.88194 0.88195 v -1.76389 -1.76389 h 0.88194 0.88195 v -0.88194 -0.88194 h -0.88195 -0.88194 v -1.76389 -1.76389 h -0.88195 -0.88194 v -0.88195 -0.88194 h -0.88195 -0.88194 v 0.88194 0.88195 h -0.88194 -0.88195 v -1.76389 -1.76389 h 0.88195 0.88194 v -0.88194 -0.88195 h -0.88194 -0.88195 v -0.88194 -0.88195 h 0.88195 0.88194 v 0.88195 0.88194 h 0.88194 0.88195 v -0.88194 -0.88195 h 0.88194 0.88195 v 1.76389 1.76389 h -0.88195 -0.88194 v 0.88194 0.88195 h 1.76389 1.76389 v 1.76389 1.76389 h 1.76389 1.76388 v 0.88194 0.88195 h -0.88194 -0.88194 v 0.88194 0.88194 h 1.76388 1.76389 v -0.88194 -0.88194 h 1.6757 1.67569 v 2.64583 2.64583 h -0.88194 -0.88195 v 1.6757 1.67569 h -0.79375 -0.79375 v 0.88195 0.88194 h -2.64583 -2.64583 v 1.76389 1.76389 h 0.88194 0.88195 v -0.88195 -0.88194 h 0.88194 0.88194 v 0.88194 0.88195 h -0.88194 -0.88194 v 0.88194 0.88195 h -0.88195 -0.88194 v -0.88195 -0.88194 h -0.88195 -0.88194 v 0.88194 0.88195 h -0.88195 -0.88194 z m 3.52778,-6.96736 v -0.79375 h -1.76389 -1.76389 v 0.79375 0.79375 h 1.76389 1.76389 z m 3.52777,0 v -0.79375 h 0.88195 0.88194 v -0.88194 -0.88195 h 0.79375 0.79375 v -1.76389 -1.76389 h -0.79375 -0.79375 v 1.76389 1.76389 h -0.88194 -0.88195 v -0.88194 -0.88195 h -0.88194 -0.88194 v -0.88194 -0.88195 h -0.88195 -0.88194 v 1.76389 1.76389 h 1.76389 1.76388 v 0.88195 0.88194 h -0.88194 -0.88194 v 0.79375 0.79375 h 0.88194 0.88194 z m -17.638886,-4.32153 v -1.76389 h 0.881945 0.881944 v 1.76389 1.76389 h -0.881944 -0.881945 z m 3.527778,-12.34722 v -1.76389 h 0.881945 0.881944 v 1.76389 1.76389 h -0.881944 -0.881945 z m 12.347228,0.88195 v -0.88195 h 0.88194 0.88194 v 0.88195 0.88194 h -0.88194 -0.88194 z m 8.64305,26.28194 v -0.88194 h -0.88194 -0.88195 v 0.88194 0.88194 h 0.88195 0.88194 z m 3.52778,-5.29167 v -2.64583 h -2.64583 -2.64584 v 2.64583 2.64584 h 2.64584 2.64583 z m -3.52778,0 v -0.88194 h 0.88195 0.88194 v 0.88194 0.88195 h -0.88194 -0.88195 z m 8.81945,-1.76389 v -0.88194 h -1.76389 -1.76389 v 0.88194 0.88195 h 1.76389 1.76389 z M 92.988114,205.80304 v -0.88195 h -0.79375 -0.79375 v 0.88195 0.88194 h 0.79375 0.79375 z m 3.527778,-6.87917 v -0.88195 h -0.881944 -0.881945 v 0.88195 0.88194 h 0.881945 0.881944 z m 20.990278,38.45278 v -0.88195 h 0.88195 0.88194 v 0.88195 0.88194 h -0.88194 -0.88195 z m 3.52778,0 v -0.88195 h 0.88194 0.88195 v -0.88194 -0.88195 h 0.88194 0.88195 v -0.88194 -0.88195 h 1.76389 1.76389 v 0.88195 0.88194 h 0.88194 0.88194 v 0.88195 0.88194 h -0.88194 -0.88194 v -0.88194 -0.88195 h -0.88195 -0.88194 v 1.76389 1.76389 h -2.64584 -2.64583 z m -41.980559,-5.29167 v -5.99722 h 6.085417 6.085417 v 5.99722 5.99722 h -6.085417 -6.085417 z m 10.583334,0 v -4.40972 H 85.227003 80.81728 v 4.40972 4.40972 h 4.409723 4.409722 z m -7.055556,0 v -2.64583 h 2.645834 2.645833 v 2.64583 2.64583 H 85.227003 82.581169 Z M 79.053391,220.7079 v -3.43959 h 0.881945 0.881944 v 3.43959 3.43958 h -0.881944 -0.881945 z m 1.763889,-6.08542 v -0.88194 h -0.881944 -0.881945 v -3.52778 -3.52778 h 0.881945 0.881944 v -0.88194 -0.88195 h 1.763889 1.763889 v -0.88194 -0.88195 h -2.645833 -2.645834 v -0.88194 -0.88195 h 4.409723 4.409722 v 3.52778 3.52778 h -0.881944 -0.881945 v 0.88194 0.88195 H 83.463114 80.81728 v 0.88194 0.88195 h 2.645834 2.645833 v 1.76389 1.76388 H 83.463114 80.81728 Z m 1.763889,-7.05556 v -0.88194 H 81.699225 80.81728 v 0.88194 0.88195 h 0.881945 0.881944 z m 3.527778,-0.88194 v -1.76389 h -0.881944 -0.881945 v 1.76389 1.76389 h 0.881945 0.881944 z m 41.980563,0.88194 v -0.88194 h 0.88194 0.88194 v 0.88194 0.88195 h -0.88194 -0.88194 z M 79.053391,193.54401 v -6.08542 h 6.085417 6.085417 v 6.08542 6.08541 h -6.085417 -6.085417 z m 10.542318,0.0441 0.04718,-4.36562 h -4.412804 -4.412804 v 4.4128 4.41281 l 4.365625,-0.0472 4.365626,-0.0472 z m -7.01454,0.0441 v -2.64583 h 2.645834 2.645833 v 2.64583 2.64584 h -2.645833 -2.645834 z m 35.101391,-0.0882 v -6.08542 h 5.99722 5.99723 v 6.08542 6.08541 h -5.99723 -5.99722 z m 10.40695,0.0882 v -4.40972 h -4.40973 -4.40972 v 4.40972 4.40972 h 4.40972 4.40973 z m -7.05556,0 v -2.64583 h 2.64583 2.64584 v 2.64583 2.64584 h -2.64584 -2.64583 z m -28.045836,-3.52778 v -0.88194 h 0.881945 0.881944 v 0.88194 0.88195 h -0.881944 -0.881945 z m 3.527778,-0.88194 v -1.76389 h 0.881945 0.881944 v 1.76389 1.76389 h -0.881944 -0.881945 z"
       id="path1" /></g></svg>
